<?xml version="1.0" encoding="utf-8"?>
<!-- Generator: Adobe Illustrator 17.0.0, SVG Export Plug-In . SVG Version: 6.00 Build 0)  -->
<!DOCTYPE svg PUBLIC "-//W3C//DTD SVG 1.1//EN" "http://www.w3.org/Graphics/SVG/1.1/DTD/svg11.dtd">
<svg version="1.1" id="Layer_1" xmlns="http://www.w3.org/2000/svg" xmlns:xlink="http://www.w3.org/1999/xlink" x="0px" y="0px"
	 width="301px" height="308px" viewBox="98 86 301 308" enable-background="new 98 86 301 308" xml:space="preserve">
<g>
	<path display="none" fill="#231F20" d="M437.571,338.367c0,1.105-0.895,2-2,2H64.429c-1.105,0-2-0.895-2-2V132.763
		c0-1.105,0.895-2,2-2H435.57c1.105,0,2,0.895,2,2v205.604H437.571z"/>
</g>
<g>
	<g>
		<path fill="#F9F9F9" d="M101,393.5c-1.379,0-2.5-1.121-2.5-2.5V89c0-1.378,1.121-2.5,2.5-2.5h295c1.379,0,2.5,1.122,2.5,2.5v302
			c0,1.379-1.121,2.5-2.5,2.5H101z"/>
		<path fill="#CECECE" d="M396,87c1.105,0,2,0.895,2,2v302c0,1.105-0.895,2-2,2H101c-1.105,0-2-0.895-2-2V89c0-1.105,0.895-2,2-2
			H396 M396,86H101c-1.654,0-3,1.346-3,3v302c0,1.654,1.346,3,3,3h295c1.654,0,3-1.346,3-3V89C399,87.346,397.654,86,396,86L396,86z
			"/>
	</g>
	<path fill="#CE8C5F" d="M285.81,222.98H185.06c-5.92,0-10.74,6.11-10.74,13.64v90.08c0,7.52,4.832,13.299,10.74,13.68
		c16.277,1.05,48.515,6.287,64.94,6.287s48.663-5.236,64.94-6.287c5.908-0.381,10.74-6.16,10.74-13.68v-90.08
		c0-7.53-4.82-13.64-10.74-13.64h-3.83"/>
	<g>
		<path fill="#D89261" d="M201.54,205.16c6.98,0,12.65-5.66,12.65-12.64v-0.7c0-19.619,15.811-35.864,35.33-36.128v-25.437
			c-0.504,0.002-0.977,0.007-1.32,0.014c-32.95,0.59-59.31,28.34-59.31,61.55v0.7C188.89,199.5,194.56,205.16,201.54,205.16z"/>
		<path fill="#D89261" d="M249.52,222.98h-64.46c-5.92,0-10.74,6.11-10.74,13.64v90.08c0,7.52,4.832,13.299,10.74,13.68
			c16.123,1.04,47.897,6.185,64.46,6.282L249.52,222.98L249.52,222.98z"/>
	</g>
	<g>
		<path fill="#FFFFFF" d="M284.377,312.974c0.999,2.311-0.059,4.991-2.369,5.982c-2.303,0.999-4.983-0.059-5.982-2.369
			c-4.384-10.143-14.756-16.695-26.412-16.695c-11.936,0-22.369,6.553-26.573,16.688c-0.726,1.748-2.422,2.807-4.206,2.807
			c-0.578,0-1.169-0.119-1.74-0.356c-2.326-0.963-3.421-3.62-2.458-5.946c5.628-13.541,19.355-22.293,34.977-22.293
			C264.904,290.791,278.55,299.499,284.377,312.974L284.377,312.974z"/>
		<path fill="#FFFFFF" d="M217.999,259.404c0-5.19,4.204-9.404,9.402-9.404c5.192,0,9.396,4.214,9.396,9.404
			c0,5.197-4.204,9.404-9.396,9.404C222.203,268.807,217.999,264.601,217.999,259.404L217.999,259.404z"/>
		<path fill="#FFFFFF" d="M260.632,259.404c0-5.19,4.212-9.404,9.404-9.404c5.19,0,9.403,4.214,9.403,9.404
			c0,5.197-4.206,9.404-9.403,9.404C264.844,268.807,260.632,264.601,260.632,259.404L260.632,259.404z"/>
		<path fill="#FFFFFF" d="M260.632,259.404"/>
	</g>
	<path fill="#FFFFFF" d="M398,103.333c-8.667,0-293.998,0-299,0V89c0-1.105,0.895-2,2-2h295c1.105,0,2,0.895,2,2V103.333z"/>
	<path fill="#B7B7B7" d="M311.11,222.98v-31.16c0-33.21-26.36-60.96-59.31-61.55c-0.9-0.02-2.7-0.02-3.6,0
		c-32.95,0.59-59.31,28.34-59.31,61.55v0.7c0,6.98,5.67,12.64,12.65,12.64s12.65-5.66,12.65-12.64v-0.7
		c0-19.78,16.07-36.14,35.81-36.14c19.73,0,35.81,16.36,35.81,36.14v31.16"/>
	<path fill="#AFAFAF" d="M251.8,130.27c-0.557-0.012-1.46-0.017-2.28-0.014v25.437c0.16-0.002,0.319-0.012,0.48-0.012
		c19.73,0,35.81,16.36,35.81,36.14v31.16h25.3v-31.16C311.11,158.61,284.75,130.86,251.8,130.27z"/>
	<circle fill="#CECECE" cx="107.597" cy="95.167" r="2.909"/>
	<circle fill="#CECECE" cx="115.085" cy="95.167" r="2.909"/>
	<circle fill="#CECECE" cx="122.574" cy="95.167" r="2.909"/>
</g>
</svg>
