<?xml version="1.0" encoding="utf-8"?>
<!-- Generator: Adobe Illustrator 17.0.0, SVG Export Plug-In . SVG Version: 6.00 Build 0)  -->
<!DOCTYPE svg PUBLIC "-//W3C//DTD SVG 1.1//EN" "http://www.w3.org/Graphics/SVG/1.1/DTD/svg11.dtd">
<svg version="1.1" id="Layer_1" xmlns="http://www.w3.org/2000/svg" xmlns:xlink="http://www.w3.org/1999/xlink" x="0px" y="0px"
	 width="301px" height="308px" viewBox="98 86 301 308" enable-background="new 98 86 301 308" xml:space="preserve">
<g>
	<g>
		<g>
			<g>
				<path fill="#F9F9F9" d="M101,393.5c-1.379,0-2.5-1.121-2.5-2.5V89c0-1.378,1.121-2.5,2.5-2.5h295c1.379,0,2.5,1.122,2.5,2.5v302
					c0,1.379-1.121,2.5-2.5,2.5H101z"/>
				<path fill="#CECECE" d="M396,87c1.105,0,2,0.895,2,2v302c0,1.105-0.895,2-2,2H101c-1.105,0-2-0.895-2-2V89c0-1.105,0.895-2,2-2
					H396 M396,86H101c-1.654,0-3,1.346-3,3v302c0,1.654,1.346,3,3,3h295c1.654,0,3-1.346,3-3V89C399,87.346,397.654,86,396,86
					L396,86z"/>
			</g>
			<path fill="#FFFFFF" d="M398,103.333c-8.667,0-293.998,0-299,0V89c0-1.105,0.895-2,2-2h295c1.105,0,2,0.895,2,2V103.333z"/>
			<g>
				<circle fill="#CECECE" cx="107.597" cy="95.167" r="2.909"/>
				<circle fill="#CECECE" cx="115.085" cy="95.167" r="2.909"/>
				<circle fill="#CECECE" cx="122.574" cy="95.167" r="2.909"/>
			</g>
		</g>
	</g>
	<g>
		<g>
			<path fill="#39B54A" d="M253.426,204.517c-4.451,1.001-8.27,3.217-11.381,6.117h33.83
				C270.077,205.195,261.768,202.63,253.426,204.517L253.426,204.517z"/>
			<path fill="#39B54A" d="M351.423,245.21l-16.072-71.179c-1.702-7.516-9.362-12.399-16.918-10.687L177.03,195.273
				c-3.685,0.835-6.828,3.049-8.849,6.248c-1.71,2.709-2.38,5.956-2.025,9.116h29.968c0.678-2.023,1.112-4.147,1.24-6.328
				l106.604-24.053c4.357,7.931,12.819,12.849,21.986,12.503l8.937,39.581c-2.023,0.869-3.865,2.013-5.527,3.346v29.012
				l11.376-2.571C348.344,260.409,353.137,252.82,351.423,245.21L351.423,245.21z"/>
		</g>
		<path fill="#39B54A" d="M308.568,217.281H163.607c-7.803,0-14.149,6.344-14.149,14.147v72.978c0,7.803,6.346,14.149,14.149,14.149
			H308.57c7.803,0,14.149-6.346,14.149-14.149v-72.978C322.719,223.625,316.373,217.281,308.568,217.281L308.568,217.281z
			 M309.431,288.203c-9.027,1.682-16.204,8.357-18.709,17.059h-109.27c-2.501-8.706-9.677-15.381-18.707-17.059v-40.575
			c9.026-1.682,16.206-8.351,18.707-17.061h109.274c2.501,8.706,9.678,15.375,18.705,17.061V288.203z"/>
		<path fill="#39B54A" d="M236.09,243.121c-13.693,0-24.798,11.099-24.798,24.794s11.104,24.794,24.798,24.794
			c13.692,0,24.794-11.099,24.794-24.794C260.885,254.219,249.782,243.121,236.09,243.121L236.09,243.121z"/>
	</g>
	<g>
		<path fill="#FFFFFF" d="M250.073,279.961c0.401,0.927-0.024,2.002-0.951,2.4c-0.924,0.401-1.999-0.024-2.4-0.951
			c-1.759-4.069-5.92-6.698-10.596-6.698c-4.789,0-8.974,2.629-10.661,6.695c-0.291,0.701-0.972,1.126-1.687,1.126
			c-0.232,0-0.469-0.048-0.698-0.143c-0.933-0.386-1.373-1.453-0.986-2.386c2.258-5.433,7.765-8.944,14.033-8.944
			C242.261,271.061,247.735,274.555,250.073,279.961L250.073,279.961z"/>
		<path fill="#FFFFFF" d="M223.442,258.469c0-2.082,1.687-3.773,3.772-3.773c2.083,0,3.77,1.691,3.77,3.773
			c0,2.085-1.687,3.773-3.77,3.773C225.129,262.242,223.442,260.554,223.442,258.469L223.442,258.469z"/>
		<path fill="#FFFFFF" d="M240.546,258.469c0-2.082,1.69-3.773,3.773-3.773c2.082,0,3.773,1.691,3.773,3.773
			c0,2.085-1.687,3.773-3.773,3.773C242.236,262.241,240.546,260.554,240.546,258.469L240.546,258.469z"/>
		<path fill="#FFFFFF" d="M240.546,258.469"/>
	</g>
</g>
</svg>
