<?xml version="1.0" encoding="utf-8"?>
<!-- Generator: Adobe Illustrator 17.0.0, SVG Export Plug-In . SVG Version: 6.00 Build 0)  -->
<!DOCTYPE svg PUBLIC "-//W3C//DTD SVG 1.1//EN" "http://www.w3.org/Graphics/SVG/1.1/DTD/svg11.dtd">
<svg version="1.1" id="Layer_1" xmlns="http://www.w3.org/2000/svg" xmlns:xlink="http://www.w3.org/1999/xlink" x="0px" y="0px"
	 width="375.571px" height="209.605px" viewBox="62 118.177 375.571 209.605" enable-background="new 62 118.177 375.571 209.605"
	 xml:space="preserve">
<path fill="#303844" d="M437.571,325.782c0,1.105-0.895,2-2,2H64.429c-1.105,0-2-0.895-2-2V120.178c0-1.105,0.895-2,2-2H435.57
	c1.105,0,2,0.895,2,2v205.604H437.571z"/>
<path opacity="0.05" fill="#FFFFFF" enable-background="new    " d="M437.571,325.782c0,1.105-0.895,2-2,2H307.965
	c-1.105,0-2-0.895-2-2l-78-205.605c0-1.105,0.895-2,2-2h205.606c1.105,0,2,0.895,2,2L437.571,325.782L437.571,325.782z"/>
<polygon fill="#FFFFFF" points="74.983,303.965 85.896,310.265 74.983,316.565 "/>
<rect x="100.285" y="305.79" opacity="0.3" enable-background="new    " width="298.048" height="8.95"/>
<g>
	<path fill="#FFFFFF" d="M424.134,313.651l-1.806-1.806l-1.114,1.114l1.806,1.806l-1.806,1.808h4.729v-4.729L424.134,313.651z"/>
	<path fill="#FFFFFF" d="M418.062,303.965h-4.729v4.729l1.806-1.808l1.791,1.789l1.113-1.114l-1.791-1.789L418.062,303.965z"/>
	<path fill="#FFFFFF" d="M418.062,312.958l-1.116-1.114l-1.806,1.806l-1.806-1.806v4.729h4.729l-1.808-1.808L418.062,312.958z"/>
	<path fill="#FFFFFF" d="M425.942,303.965h-4.729l1.806,1.806l-1.789,1.789l1.114,1.114l1.789-1.789l1.808,1.808L425.942,303.965
		L425.942,303.965z"/>
</g>
<g>
	<path fill="#FFFFFF" d="M306.353,260.918c1.615,3.735-0.095,8.069-3.831,9.671c-3.723,1.615-8.056-0.095-9.671-3.831
		c-7.088-16.398-23.857-26.992-42.7-26.992c-19.297,0-36.163,10.594-42.96,26.979c-1.174,2.825-3.916,4.538-6.8,4.538
		c-0.935,0-1.891-0.193-2.813-0.576c-3.76-1.557-5.531-5.853-3.975-9.613c9.098-21.892,31.291-36.041,56.548-36.041
		C274.872,225.055,296.933,239.133,306.353,260.918L306.353,260.918z"/>
	<path fill="#FFFFFF" d="M199.04,174.311c0-8.39,6.797-15.203,15.2-15.203c8.394,0,15.19,6.812,15.19,15.203
		c0,8.403-6.797,15.203-15.19,15.203C205.837,189.514,199.04,182.714,199.04,174.311L199.04,174.311z"/>
	<path fill="#FFFFFF" d="M267.965,174.311c0-8.39,6.809-15.203,15.203-15.203c8.39,0,15.203,6.812,15.203,15.203
		c0,8.403-6.8,15.203-15.203,15.203C274.774,189.514,267.965,182.714,267.965,174.311L267.965,174.311z"/>
	<path fill="#FFFFFF" d="M267.965,174.311"/>
</g>
</svg>
